<?xml version="1.0" encoding="UTF-8"?>
<svg width="29px" height="48px" viewBox="0 0 29 48" version="1.1" xmlns="http://www.w3.org/2000/svg" xmlns:xlink="http://www.w3.org/1999/xlink">
    <!-- Generator: Sketch 53.2 (72643) - https://sketchapp.com -->
    <title>f complete</title>
    <desc>Created with Sketch.</desc>
    <g id="Page-1" stroke="none" stroke-width="1" fill="none" fill-rule="evenodd">
        <g id="f-complete" fill="#00df7a">
            <path d="M0.194,9.529 C0.164,9.605 1.514,9.667 3.194,9.667 C4.875,9.667 9.344,9.717 13.125,9.777 L20,9.888 L20,12.941 L20,15.995 L15.464,16.039 L10.927,16.083 L8.465,19.5 C7.111,21.379 5.69,23.358 5.308,23.898 L4.614,24.879 L12.348,24.814 L20.083,24.75 L20.031,27.975 C19.9843333,30.9116667 19.974,37.584107 20,47.992321 L28.621,47.992321 C28.7876667,37.9074403 28.8346667,27.386 28.762,16.428 C28.707,8.093 28.643,1.255 28.621,1.232 C28.599,1.21 23.556,1.139 17.415,1.076 L6.25,0.96 L3.25,5.176 C1.6,7.494 0.225,9.453 0.194,9.529 Z" id="logo_animation_2"></path>
        </g>
    </g>
</svg>