<?xml version="1.0" encoding="UTF-8"?>
<svg width="82px" height="48px" viewBox="0 0 82 48" version="1.1" xmlns="http://www.w3.org/2000/svg" xmlns:xlink="http://www.w3.org/1999/xlink">
    <!-- Generator: Sketch 53.2 (72643) - https://sketchapp.com -->
    <title>u finished</title>
    <desc>Created with Sketch.</desc>
    <g id="Page-1" stroke="none" stroke-width="1" fill="none" fill-rule="evenodd">
        <g id="u-finished" fill="#00df7a">
            <path d="M0.194,9.529 C0.164,9.605 1.514,9.667 3.194,9.667 C4.875,9.667 9.344,9.717 13.125,9.777 L20,9.888 L20,12.941 L20,15.995 L15.464,16.039 L10.927,16.083 L8.465,19.5 C7.111,21.379 5.69,23.358 5.308,23.898 L4.614,24.879 L12.348,24.814 L20.083,24.75 L20.031,27.975 C19.961,32.38 20.385,34.7 21.823,37.769 C26.635,48.036 39.622,51.11 48.954,44.191 C51.208,42.52 52.583,40.975 56.149,36.112 C72.7943333,13.244 81.1666667,1.734 81.266,1.582 L81.538,1.167 L76.228,1.173 L70.917,1.179 L65.26,9.024 L54.163,24.223 L49.631,30.417 C45.778,35.715 44.813,36.815 42.99,37.994 C38.523,40.88 32.199,39.186 29.815,34.463 C28.854,32.559 28.871,32.865 28.762,16.428 C28.707,8.093 28.643,1.255 28.621,1.232 C28.599,1.21 23.556,1.139 17.415,1.076 L6.25,0.96 L3.25,5.176 C1.6,7.494 0.225,9.453 0.194,9.529 Z" id="path1"></path>
        </g>
    </g>
</svg>