<?xml version="1.0" encoding="UTF-8"?>
<svg width="56px" height="48px" viewBox="0 0 56 48" version="1.1" xmlns="http://www.w3.org/2000/svg" xmlns:xlink="http://www.w3.org/1999/xlink">
    <!-- Generator: Sketch 53.2 (72643) - https://sketchapp.com -->
    <title>u initial</title>
    <desc>Created with Sketch.</desc>
    <g id="Page-1" stroke="none" stroke-width="1" fill="none" fill-rule="evenodd">
        <g id="u-initial" fill="#00df7a">
            <path d="M49.3635307,43.645477 C49.2914846,43.8550277 49.1582537,44.0395768 48.954,44.191 C45.5363331,46.7249517 41.6284391,47.9185914 37.8114163,47.9094573 C33.9943936,47.9185914 30.0864996,46.7249517 26.6688327,44.191 C26.464579,44.0395768 26.3313481,43.8550277 26.2593019,43.645477 C24.4479692,42.0842298 22.9221998,40.1142794 21.823,37.769 C20.385,34.7 19.961,32.38 20.031,27.975 L20.083,24.75 L12.348,24.814 L4.614,24.879 L5.308,23.898 C5.69,23.358 7.111,21.379 8.465,19.5 L10.927,16.083 L15.464,16.039 L20,15.995 L20,12.941 L20,9.888 L13.125,9.777 C9.344,9.717 4.875,9.667 3.194,9.667 C1.514,9.667 0.164,9.605 0.194,9.529 L3.25,5.176 L6.25,0.96 L17.415,1.076 C23.556,1.139 28.599,1.21 28.621,1.232 C28.643,1.255 28.707,8.093 28.762,16.428 C28.871,32.865 28.854,32.559 29.815,34.463 C31.3560606,37.5160324 34.543475,39.3033781 37.8114163,39.4060968 C41.0793577,39.3033781 44.2667721,37.5160324 45.8078327,34.463 C46.7688327,32.559 46.7518327,32.865 46.8608327,16.428 C46.9158327,8.093 46.9798327,1.255 47.0018327,1.232 C47.0238327,1.21 49.4818327,1.295 55.6228327,1.232 L55.6228327,9.888 L55.6228327,15.995 L55.5398327,24.75 L55.5918327,27.975 C55.6618327,32.38 55.2378327,34.7 53.7998327,37.769 C52.7006329,40.1142794 51.1748635,42.0842298 49.3635307,43.645477 Z" id="path1"></path>
        </g>
    </g>
</svg>