<?xml version="1.0" encoding="UTF-8"?>
<svg width="400px" height="48px" viewBox="0 0 400 48" version="1.1" xmlns="http://www.w3.org/2000/svg" xmlns:xlink="http://www.w3.org/1999/xlink">
    <!-- Generator: Sketch 53.2 (72643) - https://sketchapp.com -->
    <title>fux_1</title>
    <desc>Created with Sketch.</desc>
    <g id="Page-1" stroke="none" stroke-width="1" fill="none" fill-rule="evenodd">
        <g id="fux_1">
            <path d="M95.25,8.067 C92.184,9.039 91.122,10.626 91.03,14.375 L90.969,16.833 L89.151,16.833 L87.333,16.833 L87.333,18.333 L87.333,19.833 L89.167,19.833 L91,19.833 L91,29.75 L91,39.667 L92.75,39.667 L94.5,39.667 L94.5,29.75 L94.5,19.833 L97.083,19.833 L99.667,19.833 L99.667,18.333 L99.667,16.833 L97.066,16.833 L94.465,16.833 L94.527,14.875 C94.63,11.596 96.369,10.274 99.338,11.217 C99.759,11.351 100.877,8.809 100.596,8.354 C100.289,7.857 96.545,7.656 95.25,8.067 M249,14.833 C249,20.851 248.995,20.886 248.301,19.791 C245.037,14.643 236.706,15.736 233.759,21.699 C231.474,26.322 232.022,33.321 234.943,36.84 C238.595,41.238 245.397,41.316 248.172,36.991 C248.999,35.703 249.167,35.86 249.167,37.917 L249.167,39.667 L250.833,39.667 L252.5,39.667 L252.5,24.417 L252.5,9.167 L250.75,9.167 L249,9.167 L249,14.833 M260,20.075 C260,27.397 260.061,31.274 260.184,31.867 C261.092,36.22 265.113,39.583 270.042,40.111 L271,40.214 L271,38.519 C271,37.303 270.941,36.807 270.792,36.766 C270.677,36.735 270.149,36.629 269.619,36.529 C267.295,36.094 264.964,34.259 264.141,32.22 L263.75,31.25 L263.704,20.208 L263.658,9.167 L261.829,9.167 L260,9.167 L260,20.075 M280,19.658 C280,26.697 279.939,30.441 279.815,31.033 C279.266,33.658 277.04,35.826 274.208,36.494 L273.333,36.7 L273.333,38.441 L273.333,40.182 L273.958,40.074 C279.043,39.201 282.421,36.271 283.399,31.884 C283.63,30.85 283.667,29.193 283.667,19.925 L283.667,9.167 L281.833,9.167 L280,9.167 L280,19.658 M288.667,9.249 C288.667,9.337 291.57,13.877 295.789,20.385 C297.204,22.568 298.326,24.445 298.283,24.557 C298.24,24.668 297.621,25.657 296.907,26.755 C293.914,31.356 288.667,39.534 288.667,39.598 C288.667,39.636 289.623,39.666 290.792,39.664 L292.917,39.662 L296.849,33.456 C299.012,30.043 300.841,27.25 300.914,27.25 C300.986,27.25 301.693,28.277 302.486,29.532 C303.278,30.788 303.971,31.86 304.026,31.915 C304.082,31.971 304.592,31.219 305.161,30.246 L306.196,28.476 L304.921,26.465 L303.647,24.453 L304.383,23.268 C304.788,22.616 306.93,19.212 309.143,15.704 C311.356,12.195 313.167,9.289 313.167,9.245 C313.167,9.202 312.21,9.167 311.042,9.168 L308.917,9.17 L305.333,14.936 C303.362,18.108 301.604,20.957 301.426,21.268 C301.247,21.579 301.022,21.832 300.926,21.831 C300.779,21.828 297.876,17.257 293.81,10.626 L292.917,9.17 L290.792,9.168 C289.623,9.167 288.667,9.204 288.667,9.249 M344.833,14.833 C344.833,20.634 344.804,20.894 344.253,19.958 C341.13,14.66 332.543,15.661 329.61,21.667 C327.734,25.509 327.726,31.066 329.592,34.945 C332.462,40.913 340.871,42.044 344.121,36.9 C344.853,35.74 345,35.91 345,37.917 L345,39.667 L346.667,39.667 L348.333,39.667 L348.333,24.417 L348.333,9.167 L346.583,9.167 L344.833,9.167 L344.833,14.833 M170.833,14.083 L170.833,16.833 L169.083,16.833 L167.333,16.833 L167.333,18.333 L167.333,19.833 L169.077,19.833 L170.821,19.833 L170.869,27.875 L170.917,35.917 L171.366,36.768 C172.614,39.133 175.664,40.44 178.542,39.842 C179.645,39.613 179.629,39.659 179.215,37.815 L178.93,36.547 L177.59,36.565 C174.4,36.607 174.333,36.413 174.333,27.131 L174.333,19.833 L176.75,19.833 L179.167,19.833 L179.167,18.333 L179.167,16.833 L176.75,16.833 L174.333,16.833 L174.333,14.083 L174.333,11.333 L172.583,11.333 L170.833,11.333 L170.833,14.083 M111.985,16.816 C110.366,17.334 108.938,18.56 108.275,20 C108.114,20.35 108.076,20.129 108.036,18.625 L107.989,16.833 L106.244,16.833 L104.5,16.833 L104.5,28.25 L104.5,39.667 L106.242,39.667 L107.985,39.667 L108.038,31.875 C108.098,23.113 108.086,23.206 109.355,21.765 C110.525,20.435 111.863,19.917 114.122,19.917 L116,19.917 L116,18.208 L116,16.5 L114.458,16.509 C113.458,16.515 112.589,16.623 111.985,16.816 M127.25,16.605 C121.755,17.458 118.583,21.751 118.584,28.333 C118.585,35.608 122.567,40.167 128.918,40.167 C135.101,40.167 139.088,35.524 139.08,28.333 C139.072,20.53 134.049,15.55 127.25,16.605 M152.898,16.748 C151.061,17.148 149.569,18.171 148.725,19.611 C148.104,20.67 148,20.523 148,18.583 L148,16.833 L146.333,16.833 L144.667,16.833 L144.667,28.25 L144.667,39.667 L146.417,39.667 L148.167,39.667 L148.167,32.03 C148.167,23.787 148.183,23.61 149.091,22.16 C151.279,18.664 157.038,18.891 158.686,22.537 L159.083,23.417 L159.131,31.542 L159.179,39.667 L160.931,39.667 L162.683,39.667 L162.629,31.042 C162.569,21.527 162.592,21.74 161.428,19.754 C159.936,17.208 156.443,15.977 152.898,16.748 M191.333,16.737 C180.867,18.944 180.23,36.491 190.5,39.694 C195.491,41.25 201.706,38.766 202.901,34.737 C202.995,34.42 199.835,33.255 199.598,33.52 C199.567,33.555 199.388,33.883 199.202,34.25 C197.721,37.16 192.656,37.938 189.605,35.724 C188.108,34.637 187.119,32.8 186.86,30.625 L186.726,29.5 L195.053,29.5 L203.38,29.5 L203.286,27.208 C202.979,19.68 198.011,15.329 191.333,16.737 M217.065,16.748 C215.24,17.145 213.819,18.113 212.882,19.596 C212.226,20.635 212.167,20.551 212.167,18.583 L212.167,16.833 L210.417,16.833 L208.667,16.833 L208.667,28.25 L208.667,39.667 L210.494,39.667 L212.321,39.667 L212.369,31.708 L212.417,23.75 L212.879,22.81 C214.91,18.675 221.013,18.582 222.899,22.658 C223.238,23.392 223.252,23.685 223.298,31.542 L223.345,39.667 L225.098,39.667 L226.85,39.667 L226.796,31.042 C226.736,21.527 226.758,21.74 225.594,19.754 C224.102,17.208 220.61,15.977 217.065,16.748 M362.268,16.774 C355.315,18.264 351.967,27.728 355.798,35.063 C359.221,41.616 370.337,41.906 373.569,35.528 C373.806,35.06 374,34.61 374,34.528 C374,34.408 371.176,33.5 370.801,33.5 C370.744,33.5 370.505,33.83 370.268,34.234 C367.055,39.717 357.833,36.676 357.833,30.132 L357.833,29.5 L366.104,29.5 L374.375,29.5 L374.289,27.125 C374.014,19.574 369.068,15.315 362.268,16.774 M378.08,17.125 C378.144,17.285 379.768,21.654 381.69,26.833 C383.611,32.012 385.464,37 385.807,37.917 L386.43,39.583 L388.256,39.583 L390.081,39.583 L390.695,37.917 C391.033,37 392.919,31.9 394.886,26.583 L398.463,16.917 L396.609,16.869 C395.589,16.843 394.729,16.881 394.698,16.953 C394.667,17.024 393.241,21.09 391.529,25.988 C389.817,30.885 388.342,34.915 388.25,34.944 C388.158,34.973 386.967,31.754 385.602,27.79 C384.238,23.826 382.824,19.74 382.46,18.708 L381.799,16.833 L379.881,16.833 C378.123,16.833 377.974,16.857 378.08,17.125 M131.559,20.218 C137.022,22.718 137.12,33.702 131.703,36.369 C127.663,38.358 123.273,35.896 122.25,31.069 C120.662,23.572 125.801,17.582 131.559,20.218 M195.917,20.069 C198.082,20.977 199.429,22.897 199.754,25.542 L199.872,26.5 L193.362,26.5 C189.782,26.5 186.821,26.444 186.782,26.375 C186.443,25.778 187.637,22.886 188.697,21.736 C190.423,19.864 193.649,19.119 195.917,20.069 M245.226,20.231 C250.484,22.803 250.354,33.923 245.036,36.519 C243.718,37.162 241.267,37.092 239.798,36.369 C234.162,33.596 234.587,21.901 240.392,19.999 C241.861,19.518 243.977,19.62 245.226,20.231 M341.066,20.234 C346.293,22.792 346.271,33.878 341.034,36.45 C339.033,37.433 336,37.014 334.298,35.52 C331.045,32.664 330.768,24.989 333.797,21.637 C335.546,19.7 338.722,19.087 341.066,20.234 M367.219,20.215 C369.305,21.169 370.833,23.661 370.833,26.106 L370.833,26.5 L364.312,26.5 L357.791,26.5 L357.874,25.708 C358.344,21.241 363.211,18.379 367.219,20.215 M306.555,32.595 L305.538,34.357 L307.22,37.012 L308.902,39.667 L311.04,39.667 C313.139,39.667 313.175,39.66 312.997,39.328 C312.637,38.655 307.962,31.245 307.769,31.042 C307.614,30.879 307.352,31.215 306.555,32.595 M319.486,34.654 C316.577,35.571 317.107,39.845 320.134,39.882 C323.466,39.922 323.794,35.112 320.494,34.607 C320.177,34.558 319.723,34.579 319.486,34.654" id="path0" fill="#1D1D1D"></path>
            <path d="M3.25,5.176 C1.6,7.494 0.225,9.453 0.194,9.529 C0.164,9.605 1.514,9.667 3.194,9.667 C4.875,9.667 9.344,9.717 13.125,9.777 L20,9.888 L20,12.941 L20,15.995 L15.464,16.039 L10.927,16.083 L8.465,19.5 C7.111,21.379 5.69,23.358 5.308,23.898 L4.614,24.879 L12.348,24.814 L20.083,24.75 L20.031,27.975 C19.961,32.38 20.385,34.7 21.823,37.769 C26.635,48.036 39.622,51.11 48.954,44.191 C51.208,42.52 52.583,40.975 56.149,36.112 L59.539,31.487 L61.061,33.561 C61.898,34.702 64.608,38.413 67.083,41.809 L71.583,47.984 L76.958,47.992 C79.915,47.996 82.333,47.962 82.333,47.915 C82.333,47.869 80.1,44.812 77.371,41.124 C66.57,26.525 64.918,24.267 64.953,24.152 C64.973,24.086 68.59,19.075 72.992,13.015 C77.393,6.955 81.117,1.81 81.266,1.582 L81.538,1.167 L76.228,1.173 L70.917,1.179 L65.26,9.024 C60.123,16.149 59.584,16.84 59.38,16.559 C59.256,16.389 56.664,12.858 53.619,8.712 L48.083,1.174 L42.718,1.17 L37.353,1.167 L43.459,9.542 C46.818,14.148 50.6,19.336 51.865,21.07 L54.163,24.223 L53.776,24.737 C53.563,25.019 51.698,27.575 49.631,30.417 C45.778,35.715 44.813,36.815 42.99,37.994 C38.523,40.88 32.199,39.186 29.815,34.463 C28.854,32.559 28.871,32.865 28.762,16.428 C28.707,8.093 28.643,1.255 28.621,1.232 C28.599,1.21 23.556,1.139 17.415,1.076 L6.25,0.96 L3.25,5.176 M97.042,7.786 C97.294,7.824 97.706,7.824 97.958,7.786 C98.21,7.748 98.004,7.717 97.5,7.717 C96.996,7.717 96.79,7.748 97.042,7.786 M259.912,19.75 C259.912,25.617 259.933,27.992 259.958,25.03 C259.984,22.067 259.984,17.267 259.958,14.363 C259.933,11.459 259.912,13.883 259.912,19.75 M348.413,24.417 C348.413,32.85 348.433,36.324 348.458,32.138 C348.483,27.951 348.483,21.051 348.458,16.804 C348.434,12.558 348.413,15.983 348.413,24.417 M144.579,28.25 C144.579,34.575 144.6,37.138 144.625,33.946 C144.65,30.754 144.65,25.579 144.625,22.446 C144.6,19.313 144.579,21.925 144.579,28.25 M108.077,32.167 C108.077,36.337 108.098,38.044 108.125,35.958 C108.151,33.873 108.151,30.46 108.125,28.375 C108.098,26.29 108.077,27.996 108.077,32.167 M162.743,32.333 C162.743,36.413 162.765,38.081 162.792,36.042 C162.818,34.002 162.818,30.665 162.792,28.625 C162.765,26.585 162.743,28.254 162.743,32.333 M226.91,32.333 C226.91,36.413 226.932,38.081 226.958,36.042 C226.985,34.002 226.985,30.665 226.958,28.625 C226.932,26.585 226.91,28.254 226.91,32.333 M186.81,26.377 C186.88,26.447 189.858,26.484 193.427,26.46 L199.917,26.416 L193.3,26.333 C189.661,26.287 186.74,26.307 186.81,26.377 M361.042,26.458 C362.852,26.485 365.815,26.485 367.625,26.458 C369.435,26.431 367.954,26.409 364.333,26.409 C360.712,26.409 359.231,26.431 361.042,26.458 M344.888,28.25 C344.889,28.892 344.919,29.134 344.955,28.788 C344.991,28.442 344.99,27.917 344.954,27.621 C344.917,27.325 344.887,27.608 344.888,28.25 M374.389,28.333 C374.389,29.021 374.419,29.302 374.455,28.958 C374.491,28.615 374.491,28.052 374.455,27.708 C374.419,27.365 374.389,27.646 374.389,28.333 M139.217,28.333 C139.217,28.837 139.248,29.044 139.286,28.792 C139.324,28.54 139.324,28.127 139.286,27.875 C139.248,27.623 139.217,27.829 139.217,28.333 M177.127,36.618 C177.334,36.658 177.634,36.656 177.794,36.615 C177.953,36.573 177.783,36.54 177.417,36.542 C177.05,36.544 176.92,36.578 177.127,36.618 M372.073,37.542 L371.583,38.083 L372.125,37.594 C372.63,37.138 372.743,37 372.615,37 C372.586,37 372.342,37.244 372.073,37.542" id="path1" fill="#7D19F7"></path>
            <path d="M0,24.5 L0,48 L18.708,47.978 C29.562,47.965 36.872,47.898 36.12,47.819 C26.043,46.753 19.852,39.117 20.031,27.975 L20.083,24.75 L12.348,24.814 L4.614,24.879 L5.308,23.898 C5.69,23.358 7.111,21.379 8.465,19.5 L10.927,16.083 L15.464,16.039 L20,15.995 L20,12.941 L20,9.888 L13.125,9.777 C9.344,9.717 4.881,9.667 3.208,9.667 C1.535,9.667 0.167,9.631 0.167,9.588 C0.167,9.544 1.399,7.787 2.906,5.682 C4.412,3.577 5.771,1.662 5.925,1.427 L6.205,1 L3.103,1 L0,1 L0,24.5 M23.848,1.125 L28.612,1.172 L28.723,9.197 C28.784,13.61 28.833,20.456 28.833,24.409 C28.833,32.258 28.865,32.582 29.817,34.469 C32.199,39.185 38.526,40.879 42.99,37.994 C44.813,36.815 45.778,35.715 49.631,30.417 C51.698,27.575 53.563,25.019 53.776,24.737 L54.163,24.223 L51.865,21.07 C50.6,19.336 46.818,14.148 43.459,9.542 L37.353,1.167 L42.718,1.17 L48.083,1.174 L53.619,8.712 C56.664,12.858 59.256,16.389 59.38,16.559 C59.584,16.84 60.123,16.149 65.26,9.024 L70.917,1.179 L76.228,1.173 L81.538,1.167 L81.266,1.582 C81.117,1.81 77.393,6.955 72.992,13.015 C68.59,19.075 64.973,24.087 64.953,24.154 C64.933,24.221 67.796,28.17 71.316,32.929 C74.836,37.689 78.773,43.025 80.066,44.787 L82.417,47.99 L241.208,47.995 L400,48 L400,24.5 L400,1 L209.542,1.039 C104.79,1.06 21.227,1.099 23.848,1.125 M98.956,7.838 C99.528,7.931 100.18,8.077 100.405,8.162 L100.815,8.318 L100.305,9.837 L99.796,11.356 L99.106,11.22 C95.843,10.574 94.514,11.774 94.504,15.375 L94.5,16.833 L97.083,16.833 L99.667,16.833 L99.667,18.333 L99.667,19.833 L97.083,19.833 L94.5,19.833 L94.5,29.75 L94.5,39.667 L92.75,39.667 L91,39.667 L91,29.75 L91,19.833 L89.167,19.833 L87.333,19.833 L87.333,18.333 L87.333,16.833 L89.167,16.833 L91,16.833 L91,14.59 C91,9.539 93.96,7.027 98.956,7.838 M252.5,24.417 L252.5,39.667 L250.833,39.667 L249.167,39.667 L249.167,37.917 C249.167,35.906 249.02,35.74 248.28,36.91 C245.319,41.598 237.763,41.2 234.426,36.18 C231.732,32.129 231.576,24.989 234.094,20.979 C237.402,15.71 244.618,14.878 248.016,19.373 C248.415,19.901 248.8,20.333 248.871,20.333 C248.942,20.333 249,17.821 249,14.75 L249,9.167 L250.75,9.167 L252.5,9.167 L252.5,24.417 M263.671,19.792 C263.673,26.344 263.739,30.697 263.843,31.148 C264.473,33.877 266.894,36.031 269.914,36.548 L271,36.734 L271,38.451 L271,40.167 L270.375,40.165 C266.148,40.158 261.778,36.922 260.376,32.763 L259.922,31.417 L259.869,20.292 L259.816,9.167 L261.741,9.167 L263.667,9.167 L263.671,19.792 M283.667,20.057 C283.667,30.356 283.649,31.017 283.337,32.234 C282.375,35.997 279.409,38.79 275.265,39.834 C273.203,40.354 273.333,40.449 273.333,38.423 L273.333,36.68 L274.042,36.5 C276.792,35.801 278.664,34.231 279.553,31.879 C279.911,30.931 279.917,30.756 279.965,20.042 L280.014,9.167 L281.84,9.167 L283.667,9.167 L283.667,20.057 M296.732,15.292 C298.82,18.66 300.595,21.529 300.675,21.667 C300.912,22.071 301.469,21.226 308.118,10.375 L308.858,9.167 L311.03,9.167 C312.725,9.167 313.184,9.213 313.121,9.38 C313.053,9.556 304.841,22.658 303.954,24.005 C303.681,24.42 303.696,24.455 304.922,26.386 C306.407,28.725 306.379,28.199 305.134,30.364 L304.102,32.159 L303.449,31.121 C303.09,30.55 302.411,29.466 301.94,28.712 C301.469,27.957 301.008,27.339 300.917,27.338 C300.825,27.337 298.996,30.11 296.853,33.501 L292.955,39.667 L290.733,39.667 L288.511,39.667 L289.733,37.792 C295.132,29.51 298.317,24.44 298.222,24.277 C298.005,23.901 294.244,18.04 292.109,14.75 C290.92,12.917 289.622,10.91 289.224,10.292 L288.502,9.167 L290.718,9.167 L292.934,9.167 L296.732,15.292 M348.5,24.417 L348.5,39.667 L346.75,39.667 L345,39.667 L345,37.917 C345,35.869 344.951,35.836 343.932,37.208 C341.626,40.314 337.505,41.085 333.539,39.152 C327.136,36.032 326.201,23.428 332.012,18.573 C335.708,15.486 341.494,15.888 343.913,19.4 C344.266,19.913 344.618,20.333 344.694,20.333 C344.771,20.333 344.833,17.821 344.833,14.75 L344.833,9.167 L346.667,9.167 L348.5,9.167 L348.5,24.417 M174.333,14.083 L174.333,16.833 L176.75,16.833 L179.167,16.833 L179.167,18.333 L179.167,19.833 L176.744,19.833 L174.32,19.833 L174.369,27.292 C174.428,36.559 174.427,36.555 177.583,36.48 L178.916,36.449 L179.202,37.683 C179.359,38.361 179.528,39.08 179.577,39.28 C179.658,39.606 179.57,39.663 178.709,39.842 C175.632,40.482 172.52,39.174 171.32,36.737 L170.917,35.917 L170.87,27.875 L170.824,19.833 L169.079,19.833 L167.333,19.833 L167.333,18.339 L167.333,16.845 L169.042,16.797 L170.75,16.75 L170.796,14.042 L170.842,11.333 L172.587,11.333 L174.333,11.333 L174.333,14.083 M116,18.229 L116,19.958 L114.292,19.937 C111.445,19.903 109.706,20.806 108.685,22.849 L108.167,23.887 L108.167,31.777 L108.167,39.667 L106.333,39.667 L104.5,39.667 L104.5,28.25 L104.5,16.833 L106.244,16.833 L107.988,16.833 L108.036,18.542 L108.083,20.25 L108.532,19.486 C109.721,17.465 111.556,16.53 114.375,16.511 L116,16.5 L116,18.229 M131.208,16.744 C141.456,18.916 142.161,36.549 132.125,39.703 C128.217,40.932 123.44,39.633 121.085,36.702 C117.597,32.361 117.58,24.148 121.05,20.055 C123.534,17.125 127.266,15.909 131.208,16.744 M156.84,16.668 C159.649,17.201 161.656,19.186 162.441,22.207 C162.667,23.079 162.724,24.599 162.788,31.458 L162.865,39.667 L161.023,39.667 L159.182,39.667 L159.132,31.625 L159.083,23.583 L158.6,22.537 C156.705,18.434 150.378,18.825 148.626,23.153 C148.257,24.066 148.249,24.228 148.202,31.875 L148.154,39.667 L146.327,39.667 L144.5,39.667 L144.5,28.25 L144.5,16.833 L146.25,16.833 L148,16.833 L148,18.583 C148,20.349 148.12,20.685 148.473,19.91 C149.59,17.457 153.34,16.004 156.84,16.668 M195.85,16.739 C200.481,17.721 203.078,21.347 203.289,27.125 L203.375,29.5 L195.104,29.5 L186.833,29.5 L186.833,30.132 C186.833,31.74 187.75,33.925 188.911,35.086 C191.76,37.936 197.473,37.477 199.178,34.263 C199.648,33.378 199.645,33.378 201.484,33.918 C203.193,34.419 203.12,34.345 202.734,35.203 C200.203,40.83 191.112,41.977 186.403,37.265 C181.211,32.068 182.468,20.958 188.617,17.703 C190.71,16.595 193.448,16.23 195.85,16.739 M221.007,16.668 C223.792,17.196 225.831,19.205 226.602,22.182 C226.835,23.084 226.89,24.528 226.955,31.458 L227.032,39.667 L225.19,39.667 L223.348,39.667 L223.299,31.625 L223.25,23.583 L222.767,22.537 C220.942,18.585 214.959,18.747 212.962,22.802 L212.417,23.909 L212.367,31.788 L212.318,39.667 L210.492,39.667 L208.667,39.667 L208.667,28.25 L208.667,16.833 L210.417,16.833 L212.167,16.833 L212.167,18.583 C212.167,20.349 212.286,20.685 212.639,19.91 C213.76,17.451 217.497,16.002 221.007,16.668 M366.874,16.744 C371.778,17.783 374.5,22.045 374.5,28.684 L374.5,29.5 L366.143,29.5 L357.786,29.5 L357.888,30.458 C358.243,33.804 360.147,36.102 363.111,36.761 C366.134,37.434 369.041,36.406 370.178,34.263 C370.648,33.378 370.645,33.378 372.484,33.918 C374.164,34.411 374.079,34.339 373.837,35.071 C372.369,39.519 365.127,41.595 359.878,39.07 C352.087,35.323 352.355,21.052 360.285,17.383 C362.105,16.541 364.72,16.288 366.874,16.744 M384.499,24.5 C388.062,34.794 388.108,34.921 388.259,34.885 C388.332,34.868 389.796,30.818 391.512,25.885 L394.632,16.917 L396.586,16.87 C398.369,16.827 398.53,16.847 398.431,17.106 C398.371,17.263 396.783,21.559 394.902,26.654 C393.022,31.748 391.169,36.76 390.786,37.792 L390.089,39.667 L388.251,39.667 L386.413,39.667 L384.889,35.542 C384.05,33.273 382.157,28.168 380.682,24.197 C379.207,20.226 378,16.943 378,16.9 C378,16.858 378.872,16.844 379.937,16.87 L381.875,16.917 L384.499,24.5 M127.291,19.837 C120.675,21.509 120.069,34.322 126.5,36.587 C131.73,38.429 135.947,34.31 135.625,27.674 C135.359,22.184 131.683,18.727 127.291,19.837 M191.958,19.837 C189.274,20.515 186.833,23.417 186.833,25.932 L186.833,26.333 L193.335,26.333 L199.837,26.333 L199.735,25.625 C199.126,21.39 195.751,18.878 191.958,19.837 M240.958,19.837 C237.051,20.824 234.815,26.303 236.213,31.466 C238.265,39.045 247.135,38.843 248.747,31.179 C250.229,24.137 246.341,18.477 240.958,19.837 M336.655,19.884 C329.88,21.806 330.019,35.036 336.833,36.766 C341.516,37.954 344.833,34.423 344.833,28.25 C344.833,22.176 341.304,18.565 336.655,19.884 M363.057,19.84 C360.472,20.352 357.833,23.419 357.833,25.911 L357.833,26.333 L364.349,26.333 L370.865,26.333 L370.746,25.458 C370.194,21.394 367.001,19.06 363.057,19.84 M310.458,35.157 C311.948,37.531 313.167,39.517 313.167,39.57 C313.167,39.623 312.198,39.667 311.013,39.667 L308.86,39.667 L307.17,37.005 L305.479,34.343 L306.505,32.588 C307.069,31.623 307.58,30.835 307.64,30.837 C307.701,30.84 308.969,32.784 310.458,35.157 M56.146,36.116 C50.162,44.279 46.154,47.173 39.924,47.831 C39.278,47.899 46.119,47.965 55.125,47.977 C64.131,47.99 71.5,47.96 71.5,47.91 C71.5,47.837 60.817,33.166 59.822,31.873 C59.533,31.498 59.522,31.511 56.146,36.116 M321.777,35.092 C324.231,36.964 322.115,40.853 319.24,39.755 C317.045,38.917 316.936,35.804 319.067,34.808 C319.946,34.397 321.012,34.509 321.777,35.092" id="path2" fill="#FFFFFF"></path>
        </g>
    </g>
</svg>